<svg width="81" height="44" viewBox="0 0 81 44" fill="none" xmlns="http://www.w3.org/2000/svg">
<g id="360-degree-rotate-icon 1" clip-path="url(#clip0_486_118)">
<g id="Group">
<path id="Vector" fill-rule="evenodd" clip-rule="evenodd" d="M8.81254 20.9466C-5.84102 29.1059 33.6307 34.0617 42.523 33.9815V29.0056L49.9124 36.4961L42.523 44V39.3385C24.6526 40.0274 -17.4096 28.3569 7.88969 18.6727C8.12699 19.4285 8.41703 20.1441 8.74662 20.8129L8.81254 20.9466ZM71.428 5.55768C71.428 3.81213 71.7378 2.58824 72.3575 1.89269C72.9771 1.19714 73.9197 0.849369 75.1919 0.849369C75.7984 0.849369 76.3059 0.929625 76.6949 1.07676C77.0838 1.23058 77.4068 1.42453 77.6507 1.67199C77.9012 1.91275 78.0923 2.17358 78.2374 2.4411C78.3824 2.70862 78.4944 3.02295 78.5801 3.3841C78.7515 4.06627 78.8306 4.78188 78.8306 5.53093C78.8306 7.19623 78.5537 8.42012 77.9934 9.18924C77.4397 9.95835 76.4839 10.3463 75.1194 10.3463C74.3614 10.3463 73.7417 10.2192 73.2737 9.97842C72.8057 9.73096 72.4168 9.36981 72.1202 8.89497C71.9026 8.55388 71.7312 8.09241 71.6126 7.51056C71.4873 6.91534 71.428 6.27329 71.428 5.55768ZM17.4478 7.01566L11.5152 5.94558C12.0096 4.03283 12.9522 2.56148 14.3562 1.53823C15.7537 0.514972 17.7378 0 20.302 0C23.2486 0 25.3711 0.5551 26.6895 1.67199C28.0013 2.78887 28.6539 4.19334 28.6539 5.87871C28.6539 6.86852 28.3836 7.76471 27.8562 8.56057C27.3223 9.36312 26.5247 10.0654 25.4502 10.6673C26.3204 10.888 26.9927 11.1421 27.4476 11.4364C28.199 11.9045 28.7791 12.5265 29.1944 13.2889C29.6097 14.0581 29.8206 14.9676 29.8206 16.031C29.8206 17.3686 29.4778 18.646 28.7923 19.8766C28.1001 21.1005 27.1114 22.0435 25.8194 22.7056C24.5274 23.3677 22.8267 23.6954 20.7173 23.6954C18.6673 23.6954 17.0457 23.4479 15.8658 22.9597C14.6792 22.4715 13.7037 21.7559 12.939 20.8062C12.1744 19.8632 11.5877 18.6727 11.179 17.2415L17.461 16.3922C17.7115 17.6762 18.0872 18.5724 18.608 19.074C19.1221 19.5689 19.7813 19.8231 20.5855 19.8231C21.4226 19.8231 22.1214 19.5087 22.6817 18.8868C23.242 18.2648 23.5188 17.4288 23.5188 16.3855C23.5188 15.3221 23.2486 14.4995 22.7146 13.9176C22.1807 13.3358 21.449 13.0415 20.5262 13.0415C20.0384 13.0415 19.3594 13.1619 18.5025 13.416L18.8255 8.86153C19.1683 8.91503 19.4385 8.94178 19.6297 8.94178C20.4405 8.94178 21.1194 8.67427 21.66 8.14592C22.2005 7.61757 22.4773 6.99559 22.4773 6.26661C22.4773 5.56437 22.273 5.00927 21.8643 4.60131C21.4556 4.18665 20.8887 3.97933 20.1834 3.97933C19.4451 3.97933 18.8518 4.20672 18.3904 4.65481C17.9224 5.09622 17.6126 5.88539 17.4478 7.01566ZM49.5367 5.53093L43.2876 6.30673C43.1228 5.42392 42.8526 4.80863 42.4703 4.44748C42.0813 4.08634 41.6067 3.90576 41.0464 3.90576C40.0313 3.90576 39.2403 4.42073 38.68 5.46405C38.2713 6.21979 37.9615 7.81821 37.7703 10.2727C38.5218 9.49688 39.293 8.92841 40.0774 8.56057C40.8685 8.19273 41.7847 8.00547 42.8196 8.00547C44.8367 8.00547 46.5374 8.73446 47.9283 10.1924C49.3191 11.6571 50.0179 13.5097 50.0179 15.7501C50.0179 17.2616 49.6685 18.6393 48.9632 19.8966C48.2579 21.1473 47.2823 22.097 46.0364 22.739C44.784 23.3811 43.2217 23.7021 41.3365 23.7021C39.0755 23.7021 37.2627 23.3142 35.8982 22.525C34.5337 21.7425 33.4395 20.4986 32.6221 18.7864C31.8047 17.0743 31.396 14.8071 31.396 11.9781C31.396 7.84496 32.253 4.81532 33.9734 2.88919C35.6807 0.963064 38.0603 0 41.1058 0C42.9053 0 44.3226 0.207326 45.3641 0.628667C46.4056 1.05001 47.2757 1.67199 47.9612 2.47454C48.6534 3.29047 49.1807 4.30704 49.5367 5.53093ZM37.9812 15.7501C37.9812 16.9941 38.2911 17.9638 38.9041 18.6661C39.5237 19.3683 40.2752 19.7228 41.1717 19.7228C41.9956 19.7228 42.6878 19.4017 43.2415 18.7664C43.7952 18.131 44.0721 17.1813 44.0721 15.9173C44.0721 14.6265 43.782 13.6367 43.2085 12.9612C42.6285 12.2858 41.9165 11.9447 41.0596 11.9447C40.1895 11.9447 39.4512 12.2724 38.858 12.9345C38.2713 13.5899 37.9812 14.5262 37.9812 15.7501ZM51.356 11.7507C51.356 7.39687 52.1272 4.34717 53.6763 2.6083C55.2188 0.869433 57.5787 0 60.7361 0C62.2588 0 63.5047 0.19395 64.4803 0.568475C65.4558 0.949688 66.2535 1.4446 66.8665 2.0532C67.4861 2.6618 67.9739 3.30385 68.3233 3.97264C68.6792 4.64812 68.9627 5.43061 69.1802 6.3268C69.6021 8.03222 69.813 9.8179 69.813 11.6772C69.813 15.8371 69.1209 18.8734 67.73 20.7995C66.3457 22.7256 63.9595 23.6887 60.5647 23.6887C58.6663 23.6887 57.1304 23.3811 55.9571 22.7658C54.7837 22.1505 53.8279 21.2476 53.0765 20.0572C52.5359 19.2145 52.1075 18.0641 51.8042 16.5995C51.5076 15.1415 51.356 13.523 51.356 11.7507ZM57.5721 11.7641C57.5721 14.68 57.8226 16.673 58.3367 17.7431C58.8443 18.8132 59.5826 19.3415 60.5516 19.3415C61.191 19.3415 61.7381 19.1142 62.2061 18.6661C62.6741 18.2113 63.0169 17.489 63.2344 16.5125C63.4585 15.5294 63.564 14.0046 63.564 11.9313C63.564 8.88828 63.3135 6.84846 62.7994 5.79176C62.2918 4.74844 61.5271 4.22009 60.512 4.22009C59.4705 4.22009 58.7256 4.75513 58.2576 5.81851C57.8028 6.89527 57.5721 8.8749 57.5721 11.7641ZM73.9197 5.56437C73.9197 6.73476 74.0186 7.53063 74.2229 7.95866C74.4273 8.38668 74.7239 8.6007 75.1128 8.6007C75.3699 8.6007 75.5874 8.51376 75.7786 8.32649C75.9632 8.14592 76.1016 7.85834 76.1939 7.46375C76.2796 7.06916 76.3257 6.46056 76.3257 5.63125C76.3257 4.41404 76.2269 3.59143 76.0225 3.17009C75.8182 2.74875 75.5149 2.54142 75.1062 2.54142C74.691 2.54142 74.3877 2.75543 74.2032 3.18346C74.012 3.61149 73.9197 4.40736 73.9197 5.56437ZM72.0477 20.2177C79.0086 23.8091 77.3475 28.9053 65.0208 32.0018C61.5271 32.8779 57.5787 33.6738 53.2478 34.0015V38.0477C58.0664 37.7066 62.5489 36.5831 66.471 35.62C85.0071 31.0655 84.3611 22.933 72.6409 18.345C72.4761 19.0071 72.2784 19.6291 72.0477 20.2177Z" fill="#F04848"/>
</g>
</g>
<defs>
<clipPath id="clip0_486_118">
<rect width="81" height="44" fill="white"/>
</clipPath>
</defs>
</svg>
